HIERARCHY
ROOT hip
{
	OFFSET 0.000000 0.000000 0.000000 
	CHANNELS 6 Xposition Yposition Zposition Zrotation Xrotation Yrotation
	JOINT abdomen
	{
		OFFSET 0.000000 3.402643 0.000000 
		CHANNELS 3 Zrotation Xrotation Yrotation
		JOINT chest
		{
			OFFSET 0.000000 8.438565 -0.680529 
			CHANNELS 3 Zrotation Xrotation Yrotation
			JOINT neck
			{
				OFFSET 0.000000 10.207942 -0.272212 
				CHANNELS 3 Zrotation Xrotation Yrotation
				JOINT head
				{
					OFFSET 0.000000 3.130431 0.000000 
					CHANNELS 3 Zrotation Xrotation Yrotation
					End Site
					{
						OFFSET 0.000000 3.130435 0.000000 
					}
				}
			}
			JOINT lCollar
			{
				OFFSET 3.470700 6.669187 -0.816635 
				CHANNELS 3 Zrotation Xrotation Yrotation
				JOINT lShldr
				{
					OFFSET 3.198488 0.000000 0.000000 
					CHANNELS 3 Zrotation Xrotation Yrotation
					JOINT lForeArm
					{
						OFFSET 10.139888 0.000000 0.000000 
						CHANNELS 3 Zrotation Xrotation Yrotation
						JOINT lHand
						{
							OFFSET 8.370511 0.000000 0.000000 
							CHANNELS 3 Zrotation Xrotation Yrotation
							End Site
							{
								OFFSET 4.083176 0.000000 0.000000 
							}
						}
					}
				}
			}
			JOINT rCollar
			{
				OFFSET -3.470700 6.669187 -0.816635 
				CHANNELS 3 Zrotation Xrotation Yrotation
				JOINT rShldr
				{
					OFFSET -3.198488 0.000000 0.000000 
					CHANNELS 3 Zrotation Xrotation Yrotation
					JOINT rForeArm
					{
						OFFSET -10.139888 0.000000 0.000000 
						CHANNELS 3 Zrotation Xrotation Yrotation
						JOINT rHand
						{
							OFFSET -8.370511 0.000000 0.000000 
							CHANNELS 3 Zrotation Xrotation Yrotation
							End Site
							{
								OFFSET -4.083176 0.000000 0.000000 
							}
						}
					}
				}
			}
		}
	}
	JOINT lThigh
	{
		OFFSET 5.308129 -1.633274 1.361059 
		CHANNELS 3 Zrotation Xrotation Yrotation
		JOINT lShin
		{
			OFFSET -2.041588 -20.007561 0.000000 
			CHANNELS 3 Zrotation Xrotation Yrotation
			JOINT lFoot
			{
				OFFSET 0.000000 -19.190928 -1.224953 
				CHANNELS 3 Zrotation Xrotation Yrotation
				End Site
				{
					OFFSET 0.000000 -2.449906 4.627600 
				}
			}
		}
	}
	JOINT rThigh
	{
		OFFSET -5.308129 -1.633274 1.361059 
		CHANNELS 3 Zrotation Xrotation Yrotation
		JOINT rShin
		{
			OFFSET 2.041588 -20.007561 0.000000 
			CHANNELS 3 Zrotation Xrotation Yrotation
			JOINT rFoot
			{
				OFFSET 0.000000 -19.190928 -1.224953 
				CHANNELS 3 Zrotation Xrotation Yrotation
				End Site
				{
					OFFSET 0.000000 -2.449906 4.627600 
				}
			}
		}
	}
}
MOTION
Frames: 11
Frame Time: 0.016667
-0.263131 46.942379 0.598672 -0.839846 2.343750 72.294701 2.014410 12.800200 -2.715500 -0.319078 -20.831400 -4.472530 4.808840 34.919601 -9.605190 4.035890 21.395399 -4.088270 -1.998780 -0.069785 1.998780 -83.143898 49.056000 -8.458950 -1.629610 -1.462800 -67.552399 -0.086776 -4.111130 0.124736 1.998780 -0.069785 -1.998780 73.355003 -0.387194 -3.539080 0.367562 1.110070 41.653099 0.102441 18.297001 -0.074961 2.588750 -8.105260 -4.543760 3.587740 35.440399 0.393532 -13.486700 -33.613300 -16.169701 -1.990550 -22.234699 -13.868000 -2.558280 48.073101 -1.587370 -1.943940 -37.750999 1.719970 
-0.170262 47.139080 2.199500 -0.966798 2.060550 73.251801 1.994700 12.810300 -2.776870 -0.427008 -20.993900 -4.613360 5.339100 34.423000 -10.053900 4.204760 21.023800 -4.256060 -1.998780 -0.069785 1.998780 -83.413300 49.356201 -6.867570 -1.607170 -1.502880 -66.244003 -0.087501 -3.779110 0.124686 1.998780 -0.069785 -1.998780 74.022903 -0.846021 -3.997430 0.366652 1.109550 41.594601 0.102447 18.287001 -0.074983 2.297860 -7.601010 -5.833210 3.673870 34.218899 0.302447 -11.304400 -36.928200 -11.220900 -0.953108 -21.629200 -11.141300 -2.638370 46.616199 -1.481270 -2.554790 -39.272900 0.813383 
-0.072271 47.286480 3.755060 -1.230470 2.060540 74.120796 1.917440 12.987000 -2.749250 -0.518717 -21.121300 -4.596300 6.206370 33.987598 -10.796900 4.464170 20.837500 -4.548630 -1.998780 -0.069785 1.998780 -83.256599 49.978901 -5.827190 -1.581680 -1.545960 -64.818398 -0.087480 -3.788870 0.124687 1.998780 -0.069785 -1.998780 74.843697 -2.102700 -4.250870 0.361177 1.106480 41.243099 0.102022 18.941999 -0.073509 1.487670 -7.340500 -7.904700 3.688420 32.935101 0.259775 -11.844800 -37.422401 -11.574000 -0.136733 -21.175699 -8.297710 -2.726800 45.314800 -1.361670 -5.636640 -41.012501 -3.554020 
0.016764 47.423580 5.337730 -1.328120 1.875000 74.667801 1.897580 12.987200 -2.751990 -0.642516 -21.276400 -4.642930 7.095000 33.670101 -11.406200 4.773480 20.660601 -4.785610 -1.998780 -0.069785 1.998780 -83.528397 49.863602 -4.158670 -1.551790 -1.593570 -63.216999 -0.086570 -3.749810 0.124647 1.998780 -0.069785 -1.998780 75.938698 -3.417140 -4.408850 0.351859 1.101350 40.647701 0.101751 19.341999 -0.072601 1.145770 -7.180820 -9.026620 3.706600 32.341301 0.240850 -10.192400 -38.642502 -8.528250 0.677736 -20.608000 -6.092270 -2.776400 44.172699 -1.287150 -8.169190 -42.392601 -6.893960 
0.111687 47.467381 6.917850 -1.513670 1.943360 75.048599 1.372830 13.197400 -2.741810 -1.213790 -21.354700 -4.991410 8.011620 33.563202 -11.681500 5.183480 20.668699 -4.874150 -1.998780 -0.069785 1.998780 -83.513397 48.856998 -2.353450 -1.518430 -1.643430 -61.508099 -0.087501 -3.779110 0.124686 1.998780 -0.069785 -1.998780 77.637199 -4.556750 -4.294610 0.340483 1.095270 39.925400 0.101528 19.664000 -0.071867 0.666909 -7.311570 -9.962950 3.664340 32.208801 0.283212 -7.375730 -39.685101 -3.952270 0.517318 -20.176500 -6.926860 -2.800840 43.209499 -1.259270 -7.472230 -43.004902 -5.841380 
0.208140 47.573479 8.517150 -1.669920 1.748050 74.902000 1.581240 13.146800 -2.610540 -1.053210 -21.551399 -4.588280 8.890330 33.406502 -12.595100 5.423620 20.697100 -5.262490 -1.998780 -0.069785 1.998780 -83.323898 49.349400 -1.491020 -1.459510 -1.724340 -58.656601 -0.086093 -4.745870 0.135955 1.998780 -0.069785 -1.998780 78.751297 -6.424630 -4.608000 0.331050 1.090360 39.329899 0.101494 19.712999 -0.071756 0.623022 -7.359150 -10.658900 3.687560 32.294899 0.269532 -7.461380 -40.093201 -3.922560 0.701378 -19.947500 -6.616130 -2.790960 42.444698 -1.259640 -7.287480 -41.234699 -5.784730 
0.322502 47.766479 10.106200 -1.738290 1.689450 74.853302 1.551310 13.137300 -2.541370 -1.180170 -21.681200 -4.476660 9.149860 33.285400 -12.939600 5.463260 20.628401 -5.402070 -1.998780 -0.069785 1.998780 -84.113403 48.071899 1.086430 -1.448390 -1.738710 -58.139000 -0.086869 -4.472460 0.125829 1.998780 -0.069785 -1.998780 80.094704 -7.883210 -4.708600 0.321254 1.085390 38.715000 0.101342 19.927999 -0.071265 0.351348 -7.282020 -11.489800 3.683270 32.324799 0.268643 -5.489530 -40.726200 -0.843233 0.987602 -19.860201 -4.759760 -2.838850 42.097099 -1.197670 -8.837270 -41.017601 -8.030050 
0.412560 47.765678 11.661000 -2.119140 1.416010 74.472298 1.273280 13.188500 -2.423390 -1.326120 -21.868299 -4.419110 9.405460 33.239899 -13.113700 5.553100 20.598801 -5.477140 -1.998780 -0.069785 1.998780 -84.909897 46.117699 3.777290 -1.436710 -1.753510 -57.601898 -0.086358 -4.257600 0.134815 1.998780 -0.069785 -1.998780 81.591301 -8.866630 -4.678020 0.310622 1.080140 38.051201 0.100946 20.475000 -0.070010 0.488662 -7.484620 -11.858200 3.677270 32.423698 0.262837 -3.748460 -41.059200 1.777150 1.541300 -19.849001 -5.189520 -2.818150 41.460800 -1.212460 -8.269560 -41.240601 -7.186430 
0.520530 47.847080 13.238300 -2.246090 1.445310 73.544601 1.343990 13.314900 -2.252970 -1.339520 -21.966000 -4.011290 9.658070 33.116299 -13.420500 5.582830 20.549801 -5.586710 -1.998780 -0.069785 1.998780 -85.567902 44.214298 5.969030 -1.420560 -1.773520 -56.869400 -0.086740 -4.531050 0.125840 1.998780 -0.069785 -1.998780 83.018501 -9.539420 -4.576420 0.296774 1.073540 37.192299 0.099759 22.007999 -0.066444 0.208346 -7.379410 -12.085800 3.678260 32.621300 0.276644 -2.190220 -41.855400 4.140930 1.826430 -19.902599 -3.807300 -2.820920 41.195702 -1.210700 -8.187580 -40.500801 -7.240350 
0.627725 47.906677 14.774200 -2.294920 1.416010 72.763298 1.385440 13.500100 -2.140490 -1.368080 -21.961800 -3.758400 9.669720 32.971001 -13.701400 5.462510 20.482000 -5.675190 -1.998780 -0.069785 1.998780 -86.063599 42.023102 7.784230 -1.401950 -1.795940 -56.039299 -0.086568 -5.009560 0.126977 1.998780 -0.069785 -1.998780 84.398102 -10.651900 -4.351370 0.291080 1.070900 36.840900 0.099462 22.368999 -0.065592 0.049002 -6.960030 -12.068900 3.686510 32.196800 0.277414 -0.400943 -42.194401 6.753450 1.836850 -19.820000 -3.858600 -2.820970 40.930000 -1.190790 -8.637730 -39.175499 -8.122190 
0.747208 48.063980 16.314600 -2.275390 1.494140 71.923401 2.032230 14.186800 -2.299770 -1.143190 -21.690701 -3.646570 9.473280 32.712101 -13.521100 5.492250 20.433001 -5.677340 -1.998780 -0.069785 1.998780 -86.298897 39.727200 9.259410 -1.393520 -1.805870 -55.668098 -0.086770 -5.302530 0.128057 1.998780 -0.069785 -1.998780 85.164001 -10.807400 -3.488250 0.284576 1.067940 36.440701 0.099502 22.320000 -0.065707 -0.236639 -6.510680 -12.135600 3.716240 31.896500 0.232537 1.147700 -42.592800 9.022080 1.835290 -19.854500 -2.233430 -2.849470 40.868900 -1.164670 -9.473620 -38.114601 -9.579260 
